<?xml version="1.0" standalone="no"?><!DOCTYPE svg PUBLIC "-//W3C//DTD SVG 1.1//EN" "http://www.w3.org/Graphics/SVG/1.1/DTD/svg11.dtd"><svg class="icon" width="200px" height="200.00px" viewBox="0 0 1024 1024" version="1.1" xmlns="http://www.w3.org/2000/svg"><path fill="#ffffff" d="M941.536 198.656h-219.744V122.208a82.56 82.56 0 0 0-82.464-82.464h-254.656a82.56 82.56 0 0 0-82.464 82.464v76.448H82.464A82.976 82.976 0 0 0 0 281.12v620.064a82.56 82.56 0 0 0 82.464 82.464h858.464a82.56 82.56 0 0 0 82.464-82.464V281.12c0.608-45.152-36.736-82.464-81.856-82.464zM356.384 122.208c0-15.648 12.64-28.896 28.896-28.896h254.656c15.648 0 28.896 12.64 28.896 28.896v76.448h-312.448V122.208z m-3.616 508.096c15.04 0 27.104-12.032 27.104-27.104v-40.32h264.288v40.32c0 15.04 12.032 27.104 27.104 27.104s27.104-12.032 27.104-27.104v-40.32h272.096v338.912a28.896 28.896 0 0 1-28.896 28.896H82.528a28.896 28.896 0 0 1-28.896-28.896V562.88h272.096v40.32c0 15.04 12.64 27.104 27.104 27.104z m318.464-181.216a27.008 27.008 0 0 0-27.104 27.104v32.512H379.84v-32.512c0-15.04-12.032-27.104-27.104-27.104s-27.104 12.032-27.104 27.104v32.512H54.144V281.152c0-15.648 12.64-28.896 28.896-28.896h858.464c15.648 0 28.896 12.64 28.896 28.896v227.552h-272.096v-32.512a27.392 27.392 0 0 0-27.104-27.104z" /></svg>