<?xml version="1.0" standalone="no"?><!DOCTYPE svg PUBLIC "-//W3C//DTD SVG 1.1//EN" "http://www.w3.org/Graphics/SVG/1.1/DTD/svg11.dtd"><svg class="icon" width="200px" height="200.00px" viewBox="0 0 1024 1024" version="1.1" xmlns="http://www.w3.org/2000/svg"><path fill="#ffffff" d="M896 870.4H486.4c-14.186667 0-25.6 11.413333-25.6 25.6s11.413333 25.6 25.6 25.6h409.6c14.186667 0 25.6-11.413333 25.6-25.6s-11.413333-25.6-25.6-25.6zM896 768H640c-14.186667 0-25.6 11.413333-25.6 25.6s11.413333 25.6 25.6 25.6h256c14.186667 0 25.6-11.413333 25.6-25.6s-11.413333-25.6-25.6-25.6zM921.6 289.066667c0-20.48-8-39.893333-22.506667-54.4L790.506667 126.08c-29.866667-29.866667-78.72-29.866667-108.586667 0L111.146667 696.853333c-4.8 4.8-7.466667 11.306667-7.466667 18.133334V896c0 14.186667 11.413333 25.6 25.6 25.6h181.013333c6.826667 0 13.333333-2.666667 18.133334-7.466667L899.2 343.36c14.4-14.506667 22.4-33.706667 22.4-54.293333zM329.493333 840.533333L184.64 695.786667 627.626667 252.8l144.853333 144.746667L329.493333 840.533333z m-174.72-102.186666L286.933333 870.4H154.773333V738.346667zM862.933333 307.093333l-54.293333 54.293334-144.853333-144.746667 54.293333-54.293333c10.026667-10.026667 26.24-10.026667 36.16 0L862.933333 270.933333c4.8 4.8 7.466667 11.306667 7.466667 18.133334s-2.666667 13.226667-7.466667 18.026666z" /></svg>